<svg xmlns="http://www.w3.org/2000/svg" width="238.8" height="64" viewBox="0 0 238.8 64" role="img" aria-label="Cartable">
<path d="M22 21 Q32 9.5 42 21" fill="none" stroke="#4F46E5" stroke-width="3.6" stroke-linecap="round"/>
<rect x="12" y="20" width="40" height="34" rx="8" fill="#4F46E5"/>
<rect x="12" y="30.2" width="40" height="1.6" fill="#ffffff" opacity="0.9"/>
<rect x="27.5" y="27" width="9" height="7.4" rx="2" fill="#ffffff"/>
<rect x="21" y="40" width="22" height="2.6" rx="1.3" fill="#ffffff"/>
<rect x="21" y="45.6" width="14" height="2.6" rx="1.3" fill="#ffffff"/>
  <g transform="translate(66.44,0)"><path d="M16.995021337126598 50.44807965860598Q13.687766714082503 50.44807965860598 10.87126600284495 49.274537695590325Q8.054765291607396 48.10099573257468 5.953058321479373 45.983285917496445Q3.8513513513513513 43.86557610241821 2.7044807965860596 41.04907539118065Q1.557610241820768 38.2325746799431 1.557610241820768 34.98933143669986Q1.557610241820768 31.735419630156475 2.7044807965860596 28.92425320056899Q3.8513513513513513 26.11308677098151 5.9477240398293025 24.02204836415363Q8.044096728307254 21.93100995732575 10.855263157894736 20.74146514935989Q13.666429587482218 19.551920341394027 16.973684210526315 19.551920341394027Q20.579658605974394 19.551920341394027 23.300142247510667 20.725462304409675Q26.02062588904694 21.899004267425322 28.100995732574678 23.926031294452347L24.185633001422474 27.852062588904694Q22.93741109530583 26.486486486486488 21.145092460881934 25.718349928876247Q19.352773826458037 24.950213371266006 16.973684210526315 24.950213371266006Q14.882645803698434 24.950213371266006 13.149004267425319 25.665007112375534Q11.415362731152204 26.379800853485065 10.151137980085348 27.718705547652917Q8.886913229018491 29.05761024182077 8.198790896159316 30.90860597439545Q7.5106685633001415 32.75960170697013 7.5106685633001415 34.98933143669986Q7.5106685633001415 37.229729729729726 8.198790896159316 39.08072546230441Q8.886913229018491 40.93172119487909 10.151137980085348 42.27062588904694Q11.415362731152204 43.60953058321479 13.149004267425319 44.329658605974394Q14.882645803698434 45.049786628734 16.973684210526315 45.049786628734Q19.502133712660026 45.049786628734 21.305120910384066 44.276315789473685Q23.108108108108105 43.50284495021337 24.377667140825032 42.12660028449502L28.30369843527738 46.05263157894737Q26.20199146514936 48.111664295874824 23.417496443812233 49.279871977240404Q20.633001422475104 50.44807965860598 16.995021337126598 50.44807965860598Z M39.4950213371266 50.42674253200569Q36.67852062588904 50.42674253200569 34.4327880512091 49.018492176386914Q32.18705547652916 47.61024182076814 30.890825035561875 45.188477951635846Q29.594594594594593 42.766714082503555 29.594594594594593 39.726173541963014Q29.594594594594593 36.65362731152205 30.890825035561875 34.22652916073969Q32.18705547652916 31.799431009957328 34.4327880512091 30.38051209103841Q36.67852062588904 28.96159317211949 39.4950213371266 28.96159317211949Q41.714082503556185 28.96159317211949 43.46372688477951 29.868421052631582Q45.21337126600284 30.775248933143672 46.27489331436699 32.36486486486487Q47.336415362731145 33.95448079658606 47.41109530583215 35.981507823613086V43.40682788051209Q47.336415362731145 45.43385490753912 46.29089615931721 47.02347083926031Q45.24537695590327 48.61308677098151 43.479729729729726 49.5199146514936Q41.714082503556185 50.42674253200569 39.4950213371266 50.42674253200569ZM40.54054054054053 45.26315789473684Q42.887624466571836 45.26315789473684 44.327880512091035 43.700213371266Q45.768136557610234 42.13726884779516 45.768136557610234 39.69416785206259Q45.768136557610234 38.051209103840684 45.11735419630156 36.79765291607397Q44.466571834992884 35.54409672830725 43.29302987197724 34.83463726884779Q42.11948790896159 34.12517780938833 40.55120910384068 34.12517780938833Q39.014935988620195 34.12517780938833 37.841394025604544 34.83463726884779Q36.6678520625889 35.54409672830725 35.99039829302987 36.802987197724036Q35.31294452347083 38.06187766714083 35.31294452347083 39.69416785206259Q35.31294452347083 41.326458036984356 35.9850640113798 42.58534850640114Q36.65718349928876 43.84423897581792 37.83605974395448 44.55369843527738Q39.014935988620195 45.26315789473684 40.54054054054053 45.26315789473684ZM45.48008534850639 50.0V44.46301564722617L46.376244665718346 39.43812233285917L45.48008534850639 34.45590327169275V29.38833570412518H51.03840682788051V50.0Z M55.11379800853484 50.0V29.38833570412518H60.72546230440967V50.0ZM60.72546230440967 38.61664295874822 58.53840682788051 37.144381223328594Q58.94381223328591 33.37837837837838 60.77873966960179 31.169985775248932Q62.61366710591766 28.96159317211949 66.04907539118065 28.96159317211949Q67.56401137980085 28.96159317211949 68.7535561877667 29.463015647226175Q69.94310099573256 29.96443812233286 70.90327169274536 31.05263157894737L67.425320056899 35.08534850640114Q66.93456614509245 34.55192034139402 66.27726410621146 34.301209103840684Q65.61996206733048 34.050497866287344 64.75817923186344 34.050497866287344Q62.96586059743954 34.050497866287344 61.8456614509246 35.168013097506645Q60.72546230440967 36.285528328725945 60.72546230440967 38.61664295874822Z M75.8108108108108 50.0V20.832147937411097H81.42247510668562V50.0ZM71.0099573257468 34.29587482219061V29.38833570412518H86.22332859174965V34.29587482219061Z M97.1479374110953 50.42674253200569Q94.33143669985775 50.42674253200569 92.0857041251778 49.018492176386914Q89.83997155049785 47.61024182076814 88.54374110953057 45.188477951635846Q87.2475106685633 42.766714082503555 87.2475106685633 39.726173541963014Q87.2475106685633 36.65362731152205 88.54374110953057 34.22652916073969Q89.83997155049785 31.799431009957328 92.0857041251778 30.38051209103841Q94.33143669985775 28.96159317211949 97.1479374110953 28.96159317211949Q99.36699857752488 28.96159317211949 101.1166429587482 29.868421052631582Q102.86628733997154 30.775248933143672 103.92780938833569 32.36486486486487Q104.98933143669984 33.95448079658606 105.06401137980085 35.981507823613086V43.40682788051209Q104.98933143669984 45.43385490753912 103.94381223328591 47.02347083926031Q102.89829302987197 48.61308677098151 101.13264580369842 49.5199146514936Q99.36699857752488 50.42674253200569 97.1479374110953 50.42674253200569ZM98.19345661450923 45.26315789473684Q100.54054054054053 45.26315789473684 101.98079658605974 43.700213371266Q103.42105263157893 42.13726884779516 103.42105263157893 39.69416785206259Q103.42105263157893 38.051209103840684 102.77027027027026 36.79765291607397Q102.11948790896159 35.54409672830725 100.94594594594594 34.83463726884779Q99.77240398293029 34.12517780938833 98.20412517780937 34.12517780938833Q96.66785206258889 34.12517780938833 95.49431009957326 34.83463726884779Q94.3207681365576 35.54409672830725 93.64331436699857 36.802987197724036Q92.96586059743953 38.06187766714083 92.96586059743953 39.69416785206259Q92.96586059743953 41.326458036984356 93.63798008534849 42.58534850640114Q94.31009957325746 43.84423897581792 95.48897581792318 44.55369843527738Q96.66785206258889 45.26315789473684 98.19345661450923 45.26315789473684ZM103.13300142247509 50.0V44.46301564722617L104.02916073968704 39.43812233285917L103.13300142247509 34.45590327169275V29.38833570412518H108.6913229018492V50.0Z M124.22475106685633 50.42674253200569Q121.99502133712659 50.42674253200569 120.2027027027027 49.49324324324324Q118.4103840682788 48.559743954480794 117.3381934566145 46.943456614509245Q116.26600284495021 45.327169274537695 116.18065433854906 43.30014224751067V35.981507823613086Q116.26600284495021 33.95448079658606 117.35419630156471 32.36486486486487Q118.44238975817922 30.775248933143672 120.23470839260312 29.868421052631582Q122.02702702702702 28.96159317211949 124.22475106685633 28.96159317211949Q127.08392603129445 28.96159317211949 129.3456614509246 30.38051209103841Q131.60739687055477 31.799431009957328 132.90896159317214 34.22652916073969Q134.21052631578948 36.65362731152205 134.21052631578948 39.726173541963014Q134.21052631578948 42.766714082503555 132.90896159317214 45.188477951635846Q131.60739687055477 47.61024182076814 129.3456614509246 49.018492176386914Q127.08392603129445 50.42674253200569 124.22475106685633 50.42674253200569ZM112.76671408250355 50.0V19.146514935988623H118.37837837837837V34.45590327169275L117.42887624466572 39.43812233285917L118.32503556187766 44.46301564722617V50.0ZM123.26458036984351 45.26315789473684Q124.80085348506401 45.26315789473684 125.97439544807966 44.55369843527738Q127.1479374110953 43.84423897581792 127.82005689900427 42.58534850640114Q128.49217638691323 41.326458036984356 128.49217638691323 39.69416785206259Q128.49217638691323 38.06187766714083 127.82005689900427 36.802987197724036Q127.1479374110953 35.54409672830725 125.96906116642958 34.83463726884779Q124.79018492176387 34.12517780938833 123.25391180654339 34.12517780938833Q121.71763869132289 34.12517780938833 120.52809388335703 34.83463726884779Q119.33854907539117 35.54409672830725 118.6877667140825 36.79765291607397Q118.03698435277381 38.051209103840684 118.03698435277381 39.69416785206259Q118.03698435277381 41.33712660028449 118.69310099573256 42.596017069701276Q119.34921763869131 43.85490753911807 120.53876244665717 44.559032716927454Q121.72830725462303 45.26315789473684 123.26458036984351 45.26315789473684Z M137.00568990042672 50.0V19.146514935988623H142.61735419630156V50.0Z M156.56116642958747 50.44807965860598Q153.3392603129445 50.44807965860598 150.80547652916073 49.06116642958749Q148.27169274537695 47.67425320056899 146.81009957325745 45.22581792318634Q145.34850640113797 42.7773826458037 145.34850640113797 39.69416785206259Q145.34850640113797 36.62162162162162 146.78342816500708 34.19452347083926Q148.21834992887622 31.7674253200569 150.68812233285917 30.353840682788054Q153.15789473684208 28.940256045519206 156.19843527738263 28.940256045519206Q159.1642958748222 28.940256045519206 161.44203413940255 30.268492176386914Q163.71977240398292 31.596728307254626 165.02133712660026 33.92247510668563Q166.32290184921763 36.24822190611664 166.32290184921763 39.22475106685633Q166.32290184921763 39.76884779516359 166.25889046941677 40.34495021337126Q166.1948790896159 40.921052631578945 166.04551920341393 41.635846372688476L148.69843527738263 41.667852062588906V37.50711237553343L163.44238975817922 37.475106685633L161.15931721194877 39.192745376955905Q161.09530583214791 37.35775248933144 160.51386913229015 36.125533428165014Q159.93243243243242 34.89331436699858 158.84957325746797 34.2425320056899Q157.76671408250354 33.591749644381224 156.17709815078234 33.591749644381224Q154.51280227596015 33.591749644381224 153.2859174964438 34.32788051209104Q152.05903271692745 35.06401137980085 151.39224751066854 36.402916073968704Q150.72546230440966 37.741820768136556 150.72546230440966 39.60881934566145Q150.72546230440966 41.486486486486484 151.4349217638691 42.86806543385491Q152.1443812233286 44.24964438122333 153.4566145092461 44.991109530583216Q154.76884779516357 45.7325746799431 156.52916073968706 45.7325746799431Q158.0867709815078 45.7325746799431 159.37766714082503 45.19381223328592Q160.66856330014224 44.65504978662874 161.60739687055477 43.58819345661451L164.89331436699857 46.89544807965861Q163.37837837837836 48.65576102418208 161.22332859174963 49.55192034139402Q159.0682788051209 50.44807965860598 156.56116642958747 50.44807965860598Z" fill="#0F172A"/></g>
</svg>
