<svg xmlns="http://www.w3.org/2000/svg" width="341.7" height="64" viewBox="0 0 341.7 64" role="img" aria-label="OpenCartable">
  <path d="M22 21 Q32 9.5 42 21" fill="none" stroke="#818CF8" stroke-width="3.6" stroke-linecap="round"/>
  <rect x="12" y="20" width="40" height="34" rx="8" fill="#818CF8"/>
  <rect x="12" y="30.2" width="40" height="1.6" fill="#0F172A" opacity="0.9"/>
  <rect x="27.5" y="27" width="9" height="7.4" rx="2" fill="#0F172A"/>
  <rect x="21" y="40" width="22" height="2.6" rx="1.3" fill="#0F172A"/>
  <rect x="21" y="45.6" width="14" height="2.6" rx="1.3" fill="#0F172A"/>
  <g transform="translate(66.47,0)">
    <path d="M17.123044096728307 50.469416785206256Q13.826458036984352 50.469416785206256 10.993954480796585 49.274537695590325Q8.161450924608818 48.079658605974394 6.03307254623044 45.96194879089616Q3.904694167852062 43.84423897581792 2.715149359886202 41.0224039829303Q1.5256045519203414 38.200568990042676 1.5256045519203414 34.957325746799434Q1.5256045519203414 31.70341394025605 2.7098150782361308 28.90825035561878Q3.89402560455192 26.11308677098151 6.001066856330014 23.995376955903275Q8.108108108108107 21.877667140825036 10.92460881934566 20.704125177809388Q13.741109530583214 19.530583214793744 17.037695590327168 19.530583214793744Q20.334281650071123 19.530583214793744 23.15078236130868 20.704125177809388Q25.96728307254623 21.877667140825036 28.090327169274538 23.995376955903275Q30.21337126600284 26.11308677098151 31.397581792318633 28.929587482219063Q32.58179231863442 31.746088193456615 32.58179231863442 35.0Q32.58179231863442 38.24324324324324 31.397581792318633 41.059743954480794Q30.21337126600284 43.87624466571835 28.10633001422475 45.983285917496445Q25.999288762446657 48.09032716927454 23.188122332859173 49.2798719772404Q20.376955903271693 50.469416785206256 17.123044096728307 50.469416785206256ZM17.037695590327168 45.071123755334284Q19.907539118065433 45.071123755334284 22.057254623044095 43.790896159317214Q24.206970128022757 42.51066856330014 25.417852062588903 40.23293029871977Q26.62873399715505 37.9551920341394 26.62873399715505 34.957325746799434Q26.62873399715505 32.7275960170697 25.9352773826458 30.892603129445234Q25.241820768136556 29.05761024182077 23.961593172119485 27.713371266002845Q22.681365576102415 26.369132290184922 20.93172119487909 25.64900426742532Q19.18207681365576 24.92887624466572 17.037695590327168 24.92887624466572Q14.199857752489331 24.92887624466572 12.050142247510667 26.187766714082507Q9.900426742532005 27.44665718349929 8.68954480796586 29.703058321479375Q7.478662873399715 31.95945945945946 7.478662873399715 34.957325746799434Q7.478662873399715 37.1977240398293 8.172119487908962 39.07005689900427Q8.865576102418206 40.94238975817923 10.129800853485062 42.27062588904694Q11.394025604551919 43.59886201991465 13.159672830725462 44.334992887624466Q14.925320056899004 45.071123755334284 17.037695590327168 45.071123755334284Z M47.197724039829296 50.42674253200569Q44.96799431009957 50.42674253200569 43.17567567567567 49.5199146514936Q41.38335704125177 48.61308677098151 40.31116642958747 47.02347083926031Q39.23897581792318 45.43385490753912 39.153627311522044 43.40682788051209V36.08819345661451Q39.23897581792318 34.06116642958749 40.327169274537695 32.44487908961594Q41.4153627311522 30.82859174964438 43.20659904756014 29.895092460881934Q44.99783536396808 28.96159317211949 47.197724039829296 28.96159317211949Q50.05689900426742 28.96159317211949 52.31863442389758 30.38051209103841Q54.580369843527734 31.799431009957328 55.88193456614509 34.22652916073969Q57.18349928876244 36.65362731152205 57.18349928876244 39.726173541963014Q57.18349928876244 42.766714082503555 55.88193456614509 45.188477951635846Q54.580369843527734 47.61024182076814 52.31863442389758 49.018492176386914Q50.05689900426742 50.42674253200569 47.197724039829296 50.42674253200569ZM35.73968705547652 58.64153627311522V29.38833570412518H41.35135135135135V34.80303822822114L40.401849217638684 39.8221906116643L41.29800853485064 44.815078236130866V58.64153627311522ZM46.22226857424225 45.26315789473684Q47.76715860597439 45.26315789473684 48.94403449502133 44.55369843527738Q50.120910384068274 43.84423897581792 50.79302987197724 42.584617782887435Q51.4651493598862 41.32499658995694 51.4651493598862 39.69022194508857Q51.4651493598862 38.051209103840684 50.79302987197724 36.79765291607397Q50.120910384068274 35.54409672830725 48.946643373061356 34.83463726884779Q47.77237636205444 34.12517780938833 46.23682829482522 34.12517780938833Q44.701280227596015 34.12517780938833 43.511812728059866 34.83123739702687Q42.322345228523716 35.5372969846654 41.666151277135256 36.79395995185469Q41.0099573257468 38.050622919043974 41.0099573257468 39.692761008550484Q41.0099573257468 41.326458036984356 41.66073968705547 42.58534850640114Q42.31152204836415 43.84423897581792 43.50106685633001 44.55369843527738Q44.69061166429587 45.26315789473684 46.22226857424225 45.26315789473684Z M69.84708392603129 50.44807965860598Q66.62517780938833 50.44807965860598 64.09139402560454 49.06116642958749Q61.55761024182076 47.67425320056899 60.096017069701276 45.22581792318634Q58.63442389758178 42.7773826458037 58.63442389758178 39.69416785206259Q58.63442389758178 36.62162162162162 60.06934566145092 34.19452347083926Q61.50426742532005 31.7674253200569 63.97403982930298 30.353840682788054Q66.44381223328591 28.940256045519206 69.48435277382644 28.940256045519206Q72.45021337126599 28.940256045519206 74.72795163584635 30.268492176386914Q77.00568990042673 31.596728307254626 78.30725462304409 33.92247510668563Q79.60881934566144 36.24822190611664 79.60881934566144 39.22475106685633Q79.60881934566144 39.76884779516359 79.5448079658606 40.34495021337126Q79.48079658605974 40.921052631578945 79.33143669985775 41.635846372688476L61.98435277382645 41.667852062588906V37.50711237553343L76.72830725462303 37.475106685633L74.44523470839259 39.192745376955905Q74.38122332859174 37.35775248933144 73.79978662873398 36.125533428165014Q73.21834992887624 34.89331436699858 72.1354907539118 34.2425320056899Q71.05263157894736 33.591749644381224 69.46301564722617 33.591749644381224Q67.79871977240397 33.591749644381224 66.57183499288762 34.32788051209104Q65.34495021337126 35.06401137980085 64.67816500711237 36.402916073968704Q64.01137980085348 37.741820768136556 64.01137980085348 39.60881934566145Q64.01137980085348 41.486486486486484 64.72083926031294 42.86806543385491Q65.4302987197724 44.24964438122333 66.7425320056899 44.991109530583216Q68.0547652916074 45.7325746799431 69.81507823613086 45.7325746799431Q71.37268847795163 45.7325746799431 72.66358463726884 45.19381223328592Q73.95448079658605 44.65504978662874 74.89331436699857 43.58819345661451L78.17923186344238 46.89544807965861Q76.66429587482219 48.65576102418208 74.50924608819345 49.55192034139402Q72.35419630156471 50.44807965860598 69.84708392603129 50.44807965860598Z M96.08108108108107 50.0V38.18990042674253Q96.08108108108107 36.34423897581792 94.9288762446657 35.18669985775249Q93.77667140825035 34.02916073968706 91.98152233866519 34.02916073968706Q90.7599718407989 34.02916073968706 89.81988634714197 34.55192034139402Q88.87980085348505 35.074679943100996 88.35170697012802 36.01884779516358Q87.82361308677098 36.96301564722617 87.82361308677098 38.18990042674253L85.63655761024181 37.059032716927454Q85.63655761024181 34.65860597439545 86.68741109530583 32.8396159317212Q87.73826458036984 31.020625889046944 89.59126405325978 29.991109530583216Q91.44426352614971 28.96159317211949 93.78934371186574 28.96159317211949Q96.07041251778094 28.96159317211949 97.85739687055477 30.092460881934567Q99.6443812233286 31.223328591749645 100.66856330014224 33.04765291607397Q101.6927453769559 34.871977240398294 101.6927453769559 36.94167852062589V50.0ZM82.21194879089616 50.0V29.38833570412518H87.82361308677098V50.0Z" fill="#818CF8"/>
    <path d="M119.88264580369842 50.44807965860598Q116.57539118065432 50.44807965860598 113.75889046941677 49.274537695590325Q110.94238975817922 48.10099573257468 108.8406827880512 45.983285917496445Q106.73897581792318 43.86557610241821 105.59210526315789 41.04907539118065Q104.44523470839259 38.2325746799431 104.44523470839259 34.98933143669986Q104.44523470839259 31.735419630156475 105.59210526315789 28.92425320056899Q106.73897581792318 26.11308677098151 108.83534850640112 24.02204836415363Q110.93172119487907 21.93100995732575 113.74288762446656 20.74146514935989Q116.55405405405403 19.551920341394027 119.86130867709814 19.551920341394027Q123.46728307254622 19.551920341394027 126.18776671408249 20.725462304409675Q128.90825035561875 21.899004267425322 130.9886201991465 23.926031294452347L127.0732574679943 27.852062588904694Q125.82503556187766 26.486486486486488 124.03271692745375 25.718349928876247Q122.24039829302986 24.950213371266006 119.86130867709814 24.950213371266006Q117.77027027027026 24.950213371266006 116.03662873399713 25.665007112375534Q114.30298719772402 26.379800853485065 113.03876244665716 27.718705547652917Q111.77453769559031 29.05761024182077 111.08641536273115 30.90860597439545Q110.39829302987197 32.75960170697013 110.39829302987197 34.98933143669986Q110.39829302987197 37.229729729729726 111.08641536273115 39.08072546230441Q111.77453769559031 40.93172119487909 113.03876244665716 42.27062588904694Q114.30298719772402 43.60953058321479 116.03662873399713 44.329658605974394Q117.77027027027026 45.049786628734 119.86130867709814 45.049786628734Q122.38975817923185 45.049786628734 124.19274537695588 44.276315789473685Q125.99573257467992 43.50284495021337 127.26529160739685 42.12660028449502L131.1913229018492 46.05263157894737Q129.08961593172117 48.111664295874824 126.30512091038405 49.279871977240404Q123.52062588904693 50.44807965860598 119.88264580369842 50.44807965860598Z M142.38264580369844 50.42674253200569Q139.56614509246089 50.42674253200569 137.32041251778094 49.018492176386914Q135.074679943101 47.61024182076814 133.7784495021337 45.188477951635846Q132.48221906116643 42.766714082503555 132.48221906116643 39.726173541963014Q132.48221906116643 36.65362731152205 133.7784495021337 34.22652916073969Q135.074679943101 31.799431009957328 137.32041251778094 30.38051209103841Q139.56614509246089 28.96159317211949 142.38264580369844 28.96159317211949Q144.60170697012802 28.96159317211949 146.35135135135135 29.868421052631582Q148.1009957325747 30.775248933143672 149.16251778093886 32.36486486486487Q150.224039829303 33.95448079658606 150.29871977240398 35.981507823613086V43.40682788051209Q150.224039829303 45.43385490753912 149.17852062588906 47.02347083926031Q148.1330014224751 48.61308677098151 146.36735419630156 49.5199146514936Q144.60170697012802 50.42674253200569 142.38264580369844 50.42674253200569ZM143.42816500711237 45.26315789473684Q145.77524893314367 45.26315789473684 147.21550497866286 43.700213371266Q148.65576102418208 42.13726884779516 148.65576102418208 39.69416785206259Q148.65576102418208 38.051209103840684 148.00497866287338 36.79765291607397Q147.3541963015647 35.54409672830725 146.18065433854906 34.83463726884779Q145.00711237553344 34.12517780938833 143.43883357041253 34.12517780938833Q141.90256045519203 34.12517780938833 140.72901849217638 34.83463726884779Q139.55547652916073 35.54409672830725 138.87802275960172 36.802987197724036Q138.20056899004268 38.06187766714083 138.20056899004268 39.69416785206259Q138.20056899004268 41.326458036984356 138.87268847795164 42.58534850640114Q139.5448079658606 43.84423897581792 140.7236842105263 44.55369843527738Q141.90256045519203 45.26315789473684 143.42816500711237 45.26315789473684ZM148.36770981507823 50.0V44.46301564722617L149.26386913229018 39.43812233285917L148.36770981507823 34.45590327169275V29.38833570412518H153.92603129445234V50.0Z M158.00142247510666 50.0V29.38833570412518H163.6130867709815V50.0ZM163.6130867709815 38.61664295874822 161.42603129445234 37.144381223328594Q161.83143669985773 33.37837837837838 163.66636413617363 31.169985775248932Q165.5012915724895 28.96159317211949 168.93669985775247 28.96159317211949Q170.45163584637268 28.96159317211949 171.64118065433854 29.463015647226175Q172.8307254623044 29.96443812233286 173.79089615931719 31.05263157894737L170.31294452347083 35.08534850640114Q169.82219061166427 34.55192034139402 169.1648885727833 34.301209103840684Q168.50758653390233 34.050497866287344 167.64580369843526 34.050497866287344Q165.85348506401138 34.050497866287344 164.73328591749646 35.168013097506645Q163.6130867709815 36.285528328725945 163.6130867709815 38.61664295874822Z M178.69843527738266 50.0V20.832147937411097H184.31009957325747V50.0ZM173.89758179231865 34.29587482219061V29.38833570412518H189.11095305832148V34.29587482219061Z M200.03556187766713 50.42674253200569Q197.21906116642958 50.42674253200569 194.97332859174963 49.018492176386914Q192.7275960170697 47.61024182076814 191.4313655761024 45.188477951635846Q190.13513513513513 42.766714082503555 190.13513513513513 39.726173541963014Q190.13513513513513 36.65362731152205 191.4313655761024 34.22652916073969Q192.7275960170697 31.799431009957328 194.97332859174963 30.38051209103841Q197.21906116642958 28.96159317211949 200.03556187766713 28.96159317211949Q202.25462304409672 28.96159317211949 204.00426742532005 29.868421052631582Q205.75391180654339 30.775248933143672 206.81543385490755 32.36486486486487Q207.8769559032717 33.95448079658606 207.95163584637268 35.981507823613086V43.40682788051209Q207.8769559032717 45.43385490753912 206.83143669985776 47.02347083926031Q205.7859174964438 48.61308677098151 204.02027027027026 49.5199146514936Q202.25462304409672 50.42674253200569 200.03556187766713 50.42674253200569ZM201.08108108108107 45.26315789473684Q203.42816500711237 45.26315789473684 204.86842105263156 43.700213371266Q206.30867709815078 42.13726884779516 206.30867709815078 39.69416785206259Q206.30867709815078 38.051209103840684 205.65789473684208 36.79765291607397Q205.0071123755334 35.54409672830725 203.83357041251776 34.83463726884779Q202.66002844950214 34.12517780938833 201.09174964438122 34.12517780938833Q199.55547652916073 34.12517780938833 198.38193456614508 34.83463726884779Q197.20839260312943 35.54409672830725 196.53093883357042 36.802987197724036Q195.85348506401138 38.06187766714083 195.85348506401138 39.69416785206259Q195.85348506401138 41.326458036984356 196.52560455192034 42.58534850640114Q197.1977240398293 43.84423897581792 198.376600284495 44.55369843527738Q199.55547652916073 45.26315789473684 201.08108108108107 45.26315789473684ZM206.02062588904693 50.0V44.46301564722617L206.91678520625888 39.43812233285917L206.02062588904693 34.45590327169275V29.38833570412518H211.57894736842104V50.0Z M227.11237553342815 50.42674253200569Q224.8826458036984 50.42674253200569 223.09032716927453 49.49324324324324Q221.29800853485062 48.559743954480794 220.22581792318633 46.943456614509245Q219.15362731152203 45.327169274537695 219.06827880512088 43.30014224751067V35.981507823613086Q219.15362731152203 33.95448079658606 220.24182076813653 32.36486486486487Q221.33001422475104 30.775248933143672 223.12233285917495 29.868421052631582Q224.91465149359885 28.96159317211949 227.11237553342815 28.96159317211949Q229.97155049786628 28.96159317211949 232.23328591749643 30.38051209103841Q234.4950213371266 31.799431009957328 235.79658605974396 34.22652916073969Q237.0981507823613 36.65362731152205 237.0981507823613 39.726173541963014Q237.0981507823613 42.766714082503555 235.79658605974396 45.188477951635846Q234.4950213371266 47.61024182076814 232.23328591749643 49.018492176386914Q229.97155049786628 50.42674253200569 227.11237553342815 50.42674253200569ZM215.65433854907536 50.0V19.146514935988623H221.2660028449502V34.45590327169275L220.31650071123752 39.43812233285917L221.21266002844948 44.46301564722617V50.0ZM226.15220483641534 45.26315789473684Q227.68847795163583 45.26315789473684 228.86201991465148 44.55369843527738Q230.03556187766713 43.84423897581792 230.7076813655761 42.58534850640114Q231.37980085348505 41.326458036984356 231.37980085348505 39.69416785206259Q231.37980085348505 38.06187766714083 230.7076813655761 36.802987197724036Q230.03556187766713 35.54409672830725 228.8566856330014 34.83463726884779Q227.67780938833567 34.12517780938833 226.1415362731152 34.12517780938833Q224.6052631578947 34.12517780938833 223.41571834992885 34.83463726884779Q222.226173541963 35.54409672830725 221.57539118065432 36.79765291607397Q220.92460881934565 38.051209103840684 220.92460881934565 39.69416785206259Q220.92460881934565 41.33712660028449 221.5807254623044 42.596017069701276Q222.23684210526315 43.85490753911807 223.426386913229 44.559032716927454Q224.61593172119487 45.26315789473684 226.15220483641534 45.26315789473684Z M239.89331436699857 50.0V19.146514935988623H245.50497866287338V50.0Z M259.44879089615927 50.44807965860598Q256.22688477951635 50.44807965860598 253.69310099573255 49.06116642958749Q251.15931721194877 47.67425320056899 249.69772403982927 45.22581792318634Q248.2361308677098 42.7773826458037 248.2361308677098 39.69416785206259Q248.2361308677098 36.62162162162162 249.6710526315789 34.19452347083926Q251.10597439544804 31.7674253200569 253.575746799431 30.353840682788054Q256.0455192034139 28.940256045519206 259.0860597439545 28.940256045519206Q262.051920341394 28.940256045519206 264.3296586059744 30.268492176386914Q266.60739687055474 31.596728307254626 267.9089615931721 33.92247510668563Q269.2105263157894 36.24822190611664 269.2105263157894 39.22475106685633Q269.2105263157894 39.76884779516359 269.1465149359886 40.34495021337126Q269.08250355618776 40.921052631578945 268.9331436699857 41.635846372688476L251.58605974395445 41.667852062588906V37.50711237553343L266.33001422475104 37.475106685633L264.0469416785206 39.192745376955905Q263.98293029871974 37.35775248933144 263.401493598862 36.125533428165014Q262.82005689900427 34.89331436699858 261.7371977240398 34.2425320056899Q260.65433854907536 33.591749644381224 259.06472261735416 33.591749644381224Q257.400426742532 33.591749644381224 256.1735419630156 34.32788051209104Q254.94665718349927 35.06401137980085 254.27987197724036 36.402916073968704Q253.61308677098148 37.741820768136556 253.61308677098148 39.60881934566145Q253.61308677098148 41.486486486486484 254.32254623044093 42.86806543385491Q255.03200568990042 44.24964438122333 256.3442389758179 44.991109530583216Q257.6564722617354 45.7325746799431 259.41678520625885 45.7325746799431Q260.97439544807963 45.7325746799431 262.2652916073969 45.19381223328592Q263.55618776671406 44.65504978662874 264.49502133712656 43.58819345661451L267.7809388335704 46.89544807965861Q266.2660028449502 48.65576102418208 264.11095305832146 49.55192034139402Q261.9559032716927 50.44807965860598 259.44879089615927 50.44807965860598Z" fill="#F8FAFC"/>
  </g>
</svg>
