<svg xmlns="http://www.w3.org/2000/svg" width="64" height="64" viewBox="0 0 64 64" fill="currentColor" role="img" aria-label="OpenCartable">
  <path d="M22 21 Q32 9.5 42 21" fill="none" stroke="currentColor" stroke-width="3.6" stroke-linecap="round"/>
  <path fill-rule="evenodd" fill="currentColor" d="M20 20 h24 a8 8 0 0 1 8 8 v18 a8 8 0 0 1 -8 8 h-24 a8 8 0 0 1 -8 -8 v-18 a8 8 0 0 1 8 -8 Z M12.5 30.2 h39 v1.6 h-39 Z M29.5 27 h5 a2 2 0 0 1 2 2 v3.4 a2 2 0 0 1 -2 2 h-5 a2 2 0 0 1 -2 -2 v-3.4 a2 2 0 0 1 2 -2 Z"/>
</svg>
